<svg xmlns="http://www.w3.org/2000/svg" xmlns:xlink="http://www.w3.org/1999/xlink" width="53" height="53" viewBox="0 0 53 53">
  <defs>
    <filter id="faq" x="0" y="0" width="53" height="53" filterUnits="userSpaceOnUse">
      <feOffset dy="3" input="SourceAlpha"/>
      <feGaussianBlur stdDeviation="3" result="blur"/>
      <feFlood flood-color="#3a9efd" flood-opacity="0.2"/>
      <feComposite operator="in" in2="blur"/>
      <feComposite in="SourceGraphic"/>
    </filter>
  </defs>
  <g transform="matrix(1, 0, 0, 1, 0, 0)" filter="url(#faq)">
    <path id="faq-2" data-name="faq" d="M17.957,0a18.366,18.366,0,0,0-18,18c0,9.665,8.335,17,18,17a16.658,16.658,0,0,0,17-17C34.957,8.335,27.622,0,17.957,0Zm0,27c-.329.354-.393,0-1,0s-1.676.346-2,0,0-1.377,0-2a1.818,1.818,0,0,1,2-2c.615,0,.675.662,1,1s1,.385,1,1A4.172,4.172,0,0,1,17.957,27Zm5-13a8.653,8.653,0,0,1-1,2c-.381.453-1.069.274-2,1a11.868,11.868,0,0,0-2,2c-.227.346.035.452,0,1h0a1.259,1.259,0,0,1-1,1h-1s-1.033-.317-1-1c0-.94.658-1.376,1-2a8.008,8.008,0,0,1,2-2,10.01,10.01,0,0,0,2-2c.295-.444,0-.385,0-1a3,3,0,0,0-1-2,3.222,3.222,0,0,0-2-1c-.812,0-1.308.769-2,1-.378.126-.632-.154-1,0h0c-.85.329-1,0-1,0l-1-1a1.7,1.7,0,0,1,1-1,8.193,8.193,0,0,1,4-1,6.02,6.02,0,0,1,4,1c.982.82,2,1.556,2,3A7.1,7.1,0,0,1,22.957,14Z" transform="translate(9.04 6)" fill="#3a9efd"/>
  </g>
</svg>
