<svg xmlns="http://www.w3.org/2000/svg" width="23" height="23" viewBox="0 0 23 23">
  <g id="movie-icon" transform="translate(-10.001 -5)">
    <g id="Artboard-Copy" transform="translate(10.001 5)">
      <path id="movie" d="M71,215a4.755,4.755,0,0,0,4,2c.372,0,1-2,1-2a5.339,5.339,0,0,1-3-2,9.5,9.5,0,0,0,3-7,12.371,12.371,0,0,0-12-12c-6.352,0-11,5.648-11,12a10.665,10.665,0,0,0,11,11,14.926,14.926,0,0,0,7-2m-8-9c0-.795.206-2,1-2a2.585,2.585,0,0,1,2,2c0,.794-1.206,1-2,1s-1-.206-1-1m-7,0a3,3,0,0,1,6,0c0,1.588-1.412,2-3,2s-3-.412-3-2m6-6c0-1.588.412-3,2-3a3,3,0,0,1,0,6c-1.588,0-2-1.414-2-3m6,6a3,3,0,0,1,6,0c0,1.588-1.411,2-3,2s-3-.412-3-2m-6,5c0-1.588.412-3,2-3a3,3,0,0,1,0,6c-1.588,0-2-1.412-2-3" transform="translate(-53.001 -194)" fill="#fff" fill-rule="evenodd"/>
    </g>
  </g>
</svg>
