<svg xmlns="http://www.w3.org/2000/svg" width="17" height="14" viewBox="0 0 17 14">
  <path id="Icon_awesome-crown" data-name="Icon awesome-crown" d="M14.025,12.25H2.975a.433.433,0,0,0-.425.438v.875A.433.433,0,0,0,2.975,14h11.05a.433.433,0,0,0,.425-.437v-.875A.433.433,0,0,0,14.025,12.25Zm1.7-8.75A1.294,1.294,0,0,0,14.45,4.813a1.318,1.318,0,0,0,.117.541L12.644,6.541a.836.836,0,0,1-1.174-.317L9.3,2.324a1.321,1.321,0,0,0,.47-1.012,1.276,1.276,0,1,0-2.55,0A1.321,1.321,0,0,0,7.7,2.324L5.53,6.223a.836.836,0,0,1-1.174.317L2.436,5.354a1.351,1.351,0,0,0,.117-.541A1.294,1.294,0,0,0,1.278,3.5a1.313,1.313,0,0,0,0,2.625,1.266,1.266,0,0,0,.2-.022L3.4,11.375H13.6L15.52,6.1a1.266,1.266,0,0,0,.2.022,1.313,1.313,0,0,0,0-2.625Z" fill="#fff"/>
</svg>
